<mxfile host="app.diagrams.net" modified="2021-08-26T06:02:54.195Z" agent="5.0 (Macintosh; Intel Mac OS X 10_15_7) AppleWebKit/537.36 (KHTML, like Gecko) Chrome/86.0.4240.193 Safari/537.36" etag="hUJEzhMPX5OOUlLH_itS" version="14.9.9" type="github">
  <diagram id="o-cKrSj-kFKMY0IviBqT" name="Page-1">
    <mxGraphModel dx="946" dy="1705" grid="1" gridSize="10" guides="1" tooltips="1" connect="1" arrows="1" fold="1" page="1" pageScale="1" pageWidth="827" pageHeight="1169" math="0" shadow="0">
      <root>
        <mxCell id="0" />
        <mxCell id="1" parent="0" />
        <mxCell id="zA8ibZnCmnQFSK4jblsp-33" value="" style="rounded=0;whiteSpace=wrap;html=1;fillColor=#ffe6cc;strokeColor=#d79b00;" parent="1" vertex="1">
          <mxGeometry x="320" y="100" width="60" height="40" as="geometry" />
        </mxCell>
        <mxCell id="zA8ibZnCmnQFSK4jblsp-34" value="" style="rounded=0;whiteSpace=wrap;html=1;fillColor=#ffe6cc;strokeColor=#d79b00;" parent="1" vertex="1">
          <mxGeometry x="260" y="60" width="60" height="40" as="geometry" />
        </mxCell>
        <mxCell id="zA8ibZnCmnQFSK4jblsp-35" value="" style="rounded=0;whiteSpace=wrap;html=1;fillColor=#ffe6cc;strokeColor=#d79b00;" parent="1" vertex="1">
          <mxGeometry x="380" y="100" width="60" height="40" as="geometry" />
        </mxCell>
        <mxCell id="zA8ibZnCmnQFSK4jblsp-36" value="" style="rounded=0;whiteSpace=wrap;html=1;fillColor=#ffe6cc;strokeColor=#d79b00;" parent="1" vertex="1">
          <mxGeometry x="440" y="100" width="60" height="40" as="geometry" />
        </mxCell>
        <mxCell id="zA8ibZnCmnQFSK4jblsp-37" value="" style="rounded=0;whiteSpace=wrap;html=1;fillColor=#ffe6cc;strokeColor=#d79b00;" parent="1" vertex="1">
          <mxGeometry x="260" y="20" width="60" height="40" as="geometry" />
        </mxCell>
        <mxCell id="zA8ibZnCmnQFSK4jblsp-38" value="" style="rounded=0;whiteSpace=wrap;html=1;fillColor=#ffe6cc;strokeColor=#d79b00;" parent="1" vertex="1">
          <mxGeometry x="380" y="60" width="60" height="40" as="geometry" />
        </mxCell>
        <mxCell id="zA8ibZnCmnQFSK4jblsp-39" value="" style="rounded=0;whiteSpace=wrap;html=1;fillColor=#ffe6cc;strokeColor=#d79b00;" parent="1" vertex="1">
          <mxGeometry x="500" y="100" width="60" height="40" as="geometry" />
        </mxCell>
        <mxCell id="zA8ibZnCmnQFSK4jblsp-40" value="" style="rounded=0;whiteSpace=wrap;html=1;fillColor=#ffe6cc;strokeColor=#d79b00;" parent="1" vertex="1">
          <mxGeometry x="500" y="60" width="60" height="40" as="geometry" />
        </mxCell>
        <mxCell id="zA8ibZnCmnQFSK4jblsp-41" value="" style="rounded=0;whiteSpace=wrap;html=1;fillColor=#ffe6cc;strokeColor=#d79b00;" parent="1" vertex="1">
          <mxGeometry x="500" y="20" width="60" height="40" as="geometry" />
        </mxCell>
        <mxCell id="zA8ibZnCmnQFSK4jblsp-42" value="" style="rounded=0;whiteSpace=wrap;html=1;fillColor=#ffe6cc;strokeColor=#d79b00;" parent="1" vertex="1">
          <mxGeometry x="500" y="-20" width="60" height="40" as="geometry" />
        </mxCell>
        <mxCell id="zA8ibZnCmnQFSK4jblsp-43" value="" style="rounded=0;whiteSpace=wrap;html=1;fillColor=#ffe6cc;strokeColor=#d79b00;" parent="1" vertex="1">
          <mxGeometry x="560" y="100" width="60" height="40" as="geometry" />
        </mxCell>
        <mxCell id="zA8ibZnCmnQFSK4jblsp-70" value="" style="rounded=0;whiteSpace=wrap;html=1;fillColor=#ffe6cc;strokeColor=#d79b00;" parent="1" vertex="1">
          <mxGeometry x="260" y="100" width="60" height="40" as="geometry" />
        </mxCell>
      </root>
    </mxGraphModel>
  </diagram>
</mxfile>
